<svg id="Lager_2" data-name="Lager 2" xmlns="http://www.w3.org/2000/svg" viewBox="0 0 25.5 20"><defs><style>.cls-1{fill:#ef7b23;}</style></defs><path class="cls-1" d="M25.11,7c-.29-.72-2.17-.2-2.18-.2L21.65,3.15a4.05,4.05,0,0,0-4-3c-1.14,0-2.07-.07-2.79-.07H10.65C9.92.06,9,.08,7.86.13a4.05,4.05,0,0,0-4,3L2.58,6.8h0S.68,6.28.39,7C0,8.05-.34,8.74.71,8.74a6.79,6.79,0,0,0,.89-.06A3.31,3.31,0,0,0,.45,11.57l0,6.19a2.18,2.18,0,1,0,4.35,0v-.89c2.08.44,4.8.28,8,.28s5.9.16,8-.28v.89a2.18,2.18,0,0,0,4.36,0l0-6.19a3.36,3.36,0,0,0-1.15-2.89,6.62,6.62,0,0,0,.88.06C25.84,8.74,25.54,8.05,25.11,7ZM6.78,13.06a8.39,8.39,0,0,1-3.23,0s-.78,0-.9-.65a8.14,8.14,0,0,1,0-1.23s0-1,1.33-.55a13.24,13.24,0,0,1,2.87,1.2C7.11,12,7.9,12.68,6.78,13.06Zm6-6.32a34.5,34.5,0,0,0-8.31.62c-.76,0-.69-.69-.57-1.11l1-2.75,0-.07,0-.06a3,3,0,0,1,3-2.2c1,0,1.91-.07,2.74-.07h4.21c.82,0,1.75,0,2.74.07a3,3,0,0,1,3,2.2v.06l0,.07,1,2.89c.09.41.07,1-.6,1A34.67,34.67,0,0,0,12.75,6.74Zm10.09,5.67c-.12.62-.91.65-.91.65a8.33,8.33,0,0,1-3.22,0c-1.13-.38-.34-1.06-.08-1.23a13.37,13.37,0,0,1,2.88-1.2c1.35-.46,1.33.55,1.33.55A8.14,8.14,0,0,1,22.84,12.41Z"/></svg>