<svg id="Lager_1" data-name="Lager 1" xmlns="http://www.w3.org/2000/svg" viewBox="0 0 148.76 14.65" preserveAspectRatio="none slice"><defs><style>.cls-1{fill:#ef7b23;}.cls-2{fill:#ef7a21;}</style></defs><path class="cls-1" d="M0,14.65V7.8c2.29-.17,5.17.85,5.76.85S5.93,8,5.51,6.7s.42-3.22.76-3.82,3.73-.68,10-1.61,3.31.17,3.14,2A4.83,4.83,0,0,0,21.7,7.54c1.27.94,2.63.51,4.49-.34a3,3,0,0,0,2-2.88c.08-.84.67-1.86,1.78-1.69s2,1.1,2.88,3.3,3.73,2,5.08,1.61a15.76,15.76,0,0,1,5.51.26,23.45,23.45,0,0,0,7.29,0,18.34,18.34,0,0,1,4.67-.17c.59,0,1.61-.59,2.2-2s.17-2.37.42-2.71,4.58-.76,8.56-1a11.35,11.35,0,0,0,6-1.86s0,.76.43,4.15S76.46,7.46,78.41,7s1.52-1,2.79-2.46S81.12.76,81.54.66,83.07,1.44,86,6s3.73,2,4.66,1.86a9.09,9.09,0,0,1,4,0,25.1,25.1,0,0,0,5,.85c.59,0,4.32-.85,6.35-1S110,9.49,110,9.49a7.64,7.64,0,0,0,2-3c.34-1.44-1.18-4.5-.51-4.16s7.46-.93,10.94-1.27,4.15.34,4.15.34a10.7,10.7,0,0,0,0,4.24c.43,2.88,1.36,2.12,2.88,2.46a3.69,3.69,0,0,0,3.23-.68,4.44,4.44,0,0,1,1.61-.68s1.35-3.14,1.52-3.73,2.71,1.1,4,1.87,3.64,2.71,4.91,2.71,2.63.08,4.07.17v6.85"/><rect class="cls-2" y="13.59"/></svg>